# xmcd CD database file
#
# Track frame offsets:
#	150
#	17692
#	32925
#	47837
#	61392
#	78660
#	91155
#	104447
#	122800
#	134537
#
# Disc length: 1969 seconds
#
# Revision: 3
# Processed by: cddbd v1.5.2PL0 Copyright (c) Steve Scherf et al.
# Submitted via: CDex 1.51
#
DISCID=8707af0a
DTITLE=Severin Browne - New Improved
DYEAR=1974
DGENRE=Soul
TTITLE0=Love Notes From Denver
TTITLE1=Tickle My Lips
TTITLE2=Romance
TTITLE3=More Dreams In The Sea
TTITLE4=Confessions Of A Madman
TTITLE5=Love Song
TTITLE6=The Sweet Sound Of Your Song
TTITLE7=Do, Magnolia, Do
TTITLE8=Cooking School
TTITLE9=Beginning To Believe
EXTD=Kommentar: (c)1974 Motown Records Corp.       M6-779S1\nSongwriter: All songs written by Severine Browne, exept "Beginning To Believe" written by Severine Browne and Patti Dahlstrom - and "Romance" written by Jules Shear.\nKomponist: All songs publis
EXTD=hed thru Jobete Music Company, Inc (ASCAP), exept "Romance" published thru Prodigal Son Music (BMI).\nArrangement: Produced by Larry Murray\n YEAR: 1974
EXTT0=
EXTT1=
EXTT2=
EXTT3=
EXTT4=
EXTT5=
EXTT6=
EXTT7=
EXTT8=
EXTT9=
PLAYORDER=
